<svg id="svg" xmlns="http://www.w3.org/2000/svg" xmlns:xlink="http://www.w3.org/1999/xlink" width="400" height="400" viewBox="0, 0, 400,400"><g id="svgg"><path id="path0" d="M187.000 70.863 C 184.779 71.279,180.068 72.223,177.000 72.866 C 175.900 73.097,174.687 73.446,174.305 73.643 C 173.923 73.839,173.169 74.000,172.629 74.000 C 172.089 74.000,171.536 74.180,171.400 74.400 C 171.264 74.620,170.848 74.799,170.476 74.799 C 170.104 74.798,168.630 75.269,167.200 75.846 C 165.770 76.422,164.240 77.030,163.800 77.197 C 161.989 77.884,153.390 82.207,153.267 82.492 C 153.193 82.661,152.953 82.800,152.732 82.800 C 152.308 82.800,143.666 88.411,142.741 89.287 C 142.444 89.569,141.480 90.337,140.600 90.993 C 138.417 92.621,128.927 102.005,127.200 104.244 C 126.430 105.242,125.465 106.451,125.057 106.929 C 123.849 108.344,118.400 116.695,118.400 117.132 C 118.400 117.353,118.264 117.593,118.099 117.667 C 117.826 117.787,114.363 124.658,113.596 126.600 C 113.422 127.040,112.929 128.210,112.501 129.200 C 112.073 130.190,111.400 131.990,111.007 133.200 C 110.613 134.410,110.149 135.760,109.975 136.200 C 109.802 136.640,109.549 137.540,109.412 138.200 C 109.276 138.860,109.002 140.030,108.803 140.800 C 105.186 154.828,105.191 171.730,108.818 186.400 C 109.008 187.170,109.276 188.340,109.412 189.000 C 109.549 189.660,109.818 190.560,110.010 191.000 C 110.202 191.440,110.622 192.610,110.942 193.600 C 111.262 194.590,111.744 195.940,112.012 196.600 C 112.280 197.260,112.657 198.205,112.850 198.700 C 113.614 200.663,114.136 201.861,114.812 203.200 C 116.236 206.020,118.303 209.836,119.146 211.200 C 119.622 211.970,120.120 212.915,120.252 213.300 C 120.385 213.685,120.652 214.000,120.847 214.000 C 121.041 214.000,121.200 214.270,121.200 214.600 C 121.200 214.930,121.380 215.200,121.600 215.200 C 121.820 215.200,122.000 215.380,122.000 215.599 C 122.000 215.920,125.200 220.400,126.000 221.200 C 126.110 221.310,126.911 222.300,127.781 223.400 C 129.840 226.006,136.847 233.017,139.400 235.026 C 140.500 235.892,141.490 236.696,141.600 236.814 C 141.710 236.931,143.060 237.910,144.600 238.989 C 146.140 240.069,147.490 241.066,147.600 241.205 C 147.710 241.344,148.070 241.576,148.400 241.721 C 148.730 241.865,149.720 242.436,150.600 242.989 C 151.480 243.542,152.785 244.299,153.500 244.671 C 154.215 245.043,154.800 245.495,154.800 245.674 C 154.800 245.853,155.021 246.000,155.292 246.000 C 155.562 246.000,157.497 246.836,159.592 247.858 C 163.861 249.941,164.267 250.115,166.800 250.959 C 167.790 251.289,169.587 251.928,170.794 252.379 C 172.001 252.831,173.386 253.200,173.871 253.200 C 174.356 253.200,174.849 253.356,174.967 253.546 C 175.084 253.736,175.860 254.006,176.690 254.144 C 177.521 254.283,179.100 254.576,180.200 254.796 C 188.727 256.501,189.805 256.600,199.800 256.586 C 209.880 256.573,209.931 256.568,219.400 254.745 C 220.500 254.533,222.076 254.259,222.903 254.137 C 223.729 254.015,224.505 253.755,224.626 253.558 C 224.748 253.361,225.289 253.200,225.829 253.200 C 226.369 253.200,227.123 253.036,227.505 252.835 C 227.887 252.635,229.100 252.171,230.200 251.804 C 231.300 251.438,232.605 250.972,233.100 250.769 C 233.595 250.566,234.495 250.196,235.100 249.946 C 235.705 249.697,236.560 249.353,237.000 249.181 C 239.286 248.290,244.522 245.606,246.904 244.104 C 248.391 243.167,249.786 242.400,250.004 242.400 C 250.222 242.400,250.400 242.220,250.400 242.000 C 250.400 241.780,250.614 241.600,250.875 241.600 C 251.136 241.600,252.381 240.790,253.641 239.800 C 254.901 238.810,256.128 238.000,256.366 238.000 C 256.605 238.000,256.808 237.865,256.817 237.700 C 256.826 237.535,257.812 236.680,259.007 235.800 C 261.448 234.003,270.797 224.658,272.613 222.200 C 273.263 221.320,273.913 220.510,274.057 220.400 C 275.797 219.072,284.593 203.843,286.417 199.000 C 286.583 198.560,286.986 197.570,287.313 196.800 C 287.640 196.030,288.131 194.680,288.403 193.800 C 288.675 192.920,289.056 191.887,289.249 191.505 C 289.442 191.123,289.600 190.446,289.600 190.000 C 289.600 189.554,289.761 188.877,289.957 188.495 C 290.309 187.811,290.557 186.752,291.759 180.800 C 293.148 173.926,293.271 172.183,293.071 162.200 C 292.961 156.700,292.697 151.120,292.484 149.800 C 292.037 147.032,291.002 142.126,290.375 139.800 C 290.138 138.920,289.853 137.750,289.742 137.200 C 289.631 136.650,289.388 135.840,289.202 135.400 C 289.016 134.960,288.385 133.250,287.799 131.600 C 286.683 128.456,286.285 127.541,283.624 122.000 C 281.963 118.542,279.672 114.363,279.239 114.000 C 279.108 113.890,278.730 113.325,278.400 112.743 C 278.070 112.162,277.440 111.195,277.000 110.594 C 270.350 101.512,263.736 94.656,256.404 89.248 C 254.752 88.029,253.051 86.709,252.625 86.316 C 252.198 85.922,251.701 85.600,251.521 85.600 C 251.340 85.600,249.709 84.653,247.896 83.496 C 246.083 82.339,243.610 80.909,242.400 80.318 C 238.362 78.348,234.785 76.800,234.270 76.800 C 233.989 76.800,233.589 76.645,233.380 76.455 C 232.169 75.355,220.540 72.177,213.800 71.105 C 210.539 70.586,189.490 70.396,187.000 70.863 M194.776 274.146 C 194.652 274.276,192.132 274.561,189.176 274.781 C 186.219 275.000,182.270 275.461,180.400 275.806 C 178.530 276.150,176.010 276.615,174.800 276.839 C 173.590 277.063,171.924 277.345,171.097 277.465 C 170.271 277.586,169.495 277.845,169.374 278.042 C 169.252 278.239,168.722 278.400,168.195 278.400 C 167.669 278.400,166.824 278.557,166.319 278.748 C 165.813 278.940,163.780 279.592,161.800 280.198 C 158.136 281.319,156.746 281.816,155.505 282.447 C 155.123 282.641,154.586 282.800,154.311 282.800 C 153.886 282.800,151.177 283.982,148.705 285.245 C 148.323 285.440,147.738 285.600,147.405 285.600 C 147.072 285.600,146.800 285.780,146.800 286.000 C 146.800 286.220,146.586 286.400,146.324 286.400 C 145.868 286.400,140.014 289.186,139.600 289.600 C 139.490 289.710,138.590 290.232,137.600 290.759 C 136.610 291.287,135.516 291.962,135.169 292.259 C 134.821 292.557,134.421 292.800,134.278 292.800 C 133.975 292.800,125.894 297.982,125.600 298.366 C 125.490 298.509,124.410 299.335,123.200 300.200 C 121.990 301.065,120.910 301.870,120.800 301.987 C 120.690 302.104,119.700 302.918,118.600 303.796 C 113.265 308.052,104.959 316.286,100.640 321.600 C 96.544 326.639,96.755 326.374,95.393 328.200 C 94.737 329.080,94.004 330.009,93.765 330.263 C 93.526 330.518,92.719 331.688,91.972 332.863 C 91.226 334.039,90.476 335.060,90.307 335.133 C 90.138 335.207,90.000 335.522,90.000 335.833 C 90.000 336.145,89.820 336.400,89.600 336.400 C 89.380 336.400,89.200 336.577,89.200 336.792 C 89.200 337.008,88.550 338.200,87.756 339.441 C 85.266 343.334,79.632 354.400,77.900 358.800 C 77.684 359.350,77.348 360.113,77.153 360.495 C 76.959 360.877,76.800 361.516,76.800 361.915 C 76.800 362.314,76.656 362.811,76.481 363.020 C 76.305 363.229,75.840 364.390,75.447 365.600 C 75.054 366.810,74.582 368.160,74.399 368.600 C 74.216 369.040,73.950 369.850,73.806 370.400 C 73.522 371.491,73.226 372.551,72.184 376.200 C 71.195 379.665,70.127 384.936,69.631 388.800 C 69.447 390.230,69.200 391.670,69.082 392.000 C 68.964 392.330,68.764 394.265,68.638 396.300 L 68.409 400.000 199.859 400.000 L 331.309 400.000 331.015 398.100 C 330.853 397.055,330.561 394.760,330.366 393.000 C 330.029 389.951,329.643 387.442,328.831 383.000 C 328.630 381.900,327.984 379.200,327.396 377.000 C 326.807 374.800,326.232 372.503,326.117 371.895 C 326.002 371.287,325.749 370.692,325.554 370.571 C 325.359 370.451,325.200 369.853,325.200 369.243 C 325.200 368.633,325.077 368.010,324.926 367.859 C 324.651 367.585,324.104 366.170,322.967 362.800 C 322.341 360.944,322.222 360.645,320.896 357.600 C 318.546 352.202,317.728 350.412,316.781 348.600 C 314.333 343.914,312.551 340.798,310.541 337.686 C 309.363 335.864,308.400 334.277,308.400 334.160 C 308.400 333.950,306.414 331.189,305.983 330.800 C 305.861 330.690,305.327 329.970,304.795 329.200 C 303.949 327.974,302.624 326.314,296.934 319.350 C 294.408 316.258,285.450 307.452,282.600 305.259 C 281.940 304.751,280.733 303.720,279.917 302.967 C 279.102 302.215,278.337 301.600,278.218 301.600 C 277.908 301.600,273.027 297.860,272.867 297.500 C 272.793 297.335,272.556 297.200,272.338 297.200 C 272.121 297.200,270.808 296.390,269.421 295.400 C 268.034 294.410,266.790 293.600,266.657 293.600 C 266.524 293.600,265.431 292.970,264.227 292.200 C 263.023 291.430,261.865 290.800,261.653 290.800 C 261.440 290.800,261.207 290.655,261.133 290.479 C 261.000 290.158,250.366 284.800,249.862 284.800 C 249.716 284.800,248.742 284.391,247.698 283.891 C 246.654 283.391,244.990 282.729,244.000 282.419 C 243.010 282.109,242.020 281.741,241.800 281.600 C 241.580 281.459,240.590 281.105,239.600 280.812 C 238.610 280.519,236.526 279.857,234.970 279.340 C 233.413 278.823,231.784 278.400,231.350 278.400 C 230.915 278.400,230.389 278.238,230.180 278.041 C 229.971 277.844,229.080 277.583,228.200 277.461 C 227.320 277.340,225.700 277.070,224.600 276.861 C 223.500 276.653,220.980 276.176,219.000 275.803 C 213.449 274.756,195.372 273.520,194.776 274.146 " stroke="none" fill="#acacac" fill-rule="evenodd"></path><path id="path1" d="M0.000 200.000 L 0.000 400.000 33.600 400.000 C 52.080 400.000,67.204 399.865,67.208 399.700 C 67.212 399.535,67.398 398.230,67.621 396.800 C 67.844 395.370,68.197 392.940,68.406 391.400 C 68.959 387.320,69.497 384.047,69.953 382.000 C 70.886 377.807,71.213 376.483,71.827 374.400 C 72.184 373.190,72.570 371.703,72.684 371.095 C 72.799 370.487,73.051 369.892,73.246 369.771 C 73.441 369.651,73.600 369.059,73.600 368.456 C 73.600 367.853,73.743 367.189,73.918 366.980 C 74.093 366.771,74.467 365.880,74.749 365.000 C 75.353 363.112,77.002 358.859,78.006 356.600 C 78.397 355.720,79.029 354.280,79.410 353.400 C 80.749 350.311,84.329 343.270,84.801 342.800 C 84.911 342.690,85.268 342.060,85.593 341.400 C 86.436 339.691,88.146 337.024,88.500 336.867 C 88.665 336.793,88.800 336.549,88.800 336.324 C 88.800 333.200,109.128 310.092,117.763 303.400 C 118.614 302.740,119.511 302.014,119.756 301.788 C 120.987 300.644,125.190 297.600,125.536 297.600 C 125.755 297.600,125.993 297.462,126.067 297.293 C 126.282 296.799,130.265 294.000,130.754 294.000 C 130.999 294.000,131.200 293.820,131.200 293.600 C 131.200 293.380,131.384 293.200,131.609 293.200 C 131.833 293.200,132.688 292.765,133.509 292.232 C 137.678 289.527,151.938 282.400,153.181 282.400 C 153.602 282.400,154.089 282.196,155.895 281.262 C 156.387 281.008,157.116 280.800,157.515 280.800 C 157.914 280.800,158.411 280.643,158.620 280.451 C 158.829 280.260,160.080 279.795,161.400 279.418 C 162.720 279.042,164.113 278.568,164.495 278.367 C 164.877 278.165,165.721 278.000,166.371 278.000 C 167.021 278.000,167.664 277.820,167.800 277.600 C 167.936 277.380,168.429 277.200,168.895 277.200 C 169.362 277.200,170.296 277.036,170.972 276.835 C 184.905 272.693,214.295 272.693,228.228 276.835 C 228.904 277.036,229.928 277.200,230.505 277.200 C 231.081 277.200,231.664 277.380,231.800 277.600 C 231.936 277.820,232.429 278.000,232.895 278.000 C 233.362 278.000,234.386 278.207,235.172 278.460 C 238.469 279.523,242.247 280.875,242.895 281.225 C 243.277 281.431,243.864 281.600,244.200 281.600 C 244.536 281.600,245.123 281.765,245.505 281.966 C 245.887 282.168,246.920 282.642,247.800 283.019 C 248.680 283.396,250.109 284.042,250.975 284.453 C 251.841 284.864,252.786 285.200,253.075 285.200 C 253.364 285.200,253.600 285.380,253.600 285.600 C 253.600 285.820,253.864 286.000,254.186 286.000 C 254.508 286.000,255.543 286.424,256.486 286.942 C 257.429 287.460,259.640 288.649,261.400 289.585 C 264.621 291.297,276.092 298.812,278.055 300.495 C 279.037 301.338,280.047 302.158,282.959 304.477 C 285.780 306.724,291.837 312.567,295.600 316.671 C 298.496 319.830,298.900 320.309,300.602 322.600 C 301.256 323.480,302.072 324.470,302.416 324.800 C 302.760 325.130,303.571 326.120,304.218 327.000 C 304.866 327.880,305.492 328.690,305.609 328.800 C 306.214 329.365,308.800 333.257,308.800 333.601 C 308.800 333.820,308.980 334.000,309.200 334.000 C 309.420 334.000,309.600 334.270,309.600 334.600 C 309.600 334.930,309.780 335.200,310.000 335.200 C 310.220 335.200,310.400 335.408,310.400 335.662 C 310.400 335.916,310.850 336.714,311.400 337.436 C 311.950 338.157,312.400 338.924,312.400 339.140 C 312.400 339.356,312.535 339.593,312.700 339.667 C 313.037 339.817,314.565 342.521,316.502 346.400 C 317.216 347.830,317.935 349.060,318.100 349.133 C 318.265 349.207,318.399 349.477,318.398 349.733 C 318.397 349.990,319.051 351.550,319.851 353.200 C 321.203 355.988,321.613 356.915,322.415 359.000 C 322.584 359.440,323.179 360.970,323.738 362.400 C 324.297 363.830,324.969 365.720,325.232 366.600 C 325.496 367.480,325.845 368.560,326.010 369.000 C 326.174 369.440,326.531 370.610,326.803 371.600 C 327.076 372.590,327.524 374.210,327.800 375.200 C 329.222 380.299,329.424 381.228,329.845 384.600 C 329.955 385.480,330.203 386.560,330.395 387.000 C 330.587 387.440,330.829 388.700,330.933 389.800 C 331.037 390.900,331.345 393.645,331.617 395.900 L 332.113 400.000 366.056 400.000 L 400.000 400.000 400.000 200.000 L 400.000 0.000 200.000 0.000 L 0.000 0.000 0.000 200.000 M210.800 69.955 C 215.486 70.474,218.233 70.942,221.600 71.797 C 223.030 72.160,224.697 72.554,225.305 72.674 C 225.913 72.794,226.508 73.051,226.629 73.246 C 226.749 73.441,227.366 73.600,228.000 73.600 C 228.634 73.600,229.264 73.780,229.400 74.000 C 229.536 74.220,230.076 74.400,230.600 74.400 C 231.124 74.400,231.664 74.580,231.800 74.800 C 231.936 75.020,232.302 75.200,232.613 75.200 C 232.924 75.200,234.218 75.672,235.489 76.248 C 236.760 76.824,238.430 77.562,239.200 77.888 C 241.484 78.852,245.150 80.750,245.600 81.200 C 245.710 81.310,246.610 81.832,247.600 82.359 C 248.590 82.887,249.670 83.525,250.000 83.777 C 250.330 84.028,251.095 84.482,251.700 84.785 C 252.305 85.088,252.800 85.485,252.800 85.668 C 252.800 85.850,252.985 86.000,253.212 86.000 C 253.438 86.000,254.486 86.675,255.540 87.500 C 256.594 88.325,258.059 89.450,258.795 90.000 C 262.144 92.502,270.180 100.294,272.211 103.010 C 272.865 103.884,273.819 105.050,274.331 105.600 C 275.587 106.950,281.200 115.419,281.200 115.965 C 281.200 116.204,281.335 116.401,281.500 116.403 C 281.665 116.405,281.990 116.810,282.222 117.303 C 282.455 117.796,283.293 119.460,284.084 121.000 C 284.876 122.540,285.793 124.430,286.121 125.200 C 288.577 130.953,289.200 132.575,289.200 133.218 C 289.200 133.622,289.380 134.064,289.600 134.200 C 289.820 134.336,290.000 134.876,290.000 135.400 C 290.000 135.924,290.160 136.452,290.356 136.573 C 290.551 136.694,290.803 137.379,290.915 138.096 C 291.027 138.813,291.413 140.480,291.773 141.800 C 294.921 153.342,294.937 173.825,291.807 185.000 C 291.437 186.320,291.040 187.987,290.923 188.704 C 290.807 189.421,290.551 190.106,290.356 190.227 C 290.160 190.348,290.000 190.941,290.000 191.544 C 290.000 192.147,289.851 192.811,289.670 193.020 C 289.488 193.229,289.095 194.210,288.796 195.200 C 288.497 196.190,287.836 197.889,287.327 198.975 C 286.817 200.061,286.400 201.186,286.400 201.475 C 286.400 201.764,286.220 202.000,286.000 202.000 C 285.780 202.000,285.603 202.225,285.606 202.500 C 285.612 202.968,282.838 208.762,282.399 209.200 C 282.289 209.310,281.937 209.940,281.618 210.600 C 281.299 211.260,280.444 212.655,279.719 213.701 C 278.993 214.746,278.400 215.689,278.400 215.796 C 278.400 215.903,278.142 216.308,277.828 216.695 C 277.513 217.083,276.287 218.703,275.105 220.296 C 270.665 226.273,263.221 233.787,257.680 237.886 C 253.765 240.781,250.854 242.800,250.595 242.800 C 250.459 242.800,249.774 243.236,249.073 243.768 C 247.649 244.851,238.567 249.583,236.400 250.372 C 235.630 250.652,234.640 251.030,234.200 251.213 C 231.238 252.445,230.404 252.750,228.800 253.194 C 227.810 253.467,226.640 253.837,226.200 254.015 C 225.389 254.344,224.300 254.600,221.385 255.145 C 220.497 255.311,219.573 255.569,219.332 255.719 C 215.337 258.188,188.280 258.158,179.897 255.676 C 179.183 255.465,177.520 255.062,176.200 254.782 C 174.880 254.501,173.629 254.120,173.420 253.936 C 173.211 253.751,172.547 253.600,171.944 253.600 C 171.341 253.600,170.736 253.420,170.600 253.200 C 170.464 252.980,170.015 252.800,169.603 252.800 C 169.190 252.800,167.716 252.331,166.326 251.757 C 164.937 251.183,163.440 250.576,163.000 250.406 C 161.124 249.685,154.189 246.194,154.067 245.910 C 153.993 245.740,153.770 245.600,153.571 245.600 C 153.371 245.600,151.945 244.790,150.400 243.800 C 148.855 242.810,147.506 242.000,147.400 242.000 C 147.213 242.000,142.394 238.443,142.000 238.013 C 141.890 237.893,141.080 237.260,140.200 236.606 C 137.516 234.611,136.352 233.566,132.339 229.546 C 128.508 225.709,122.400 218.402,122.400 217.656 C 122.400 217.442,122.247 217.207,122.061 217.133 C 121.748 217.010,119.129 213.023,117.510 210.202 C 115.571 206.827,112.043 199.263,111.164 196.600 C 110.874 195.720,110.493 194.829,110.318 194.620 C 110.143 194.411,110.000 193.837,110.000 193.344 C 110.000 192.851,109.820 192.336,109.600 192.200 C 109.380 192.064,109.200 191.511,109.200 190.971 C 109.200 190.431,109.040 189.677,108.843 189.295 C 108.282 188.201,107.319 184.461,106.811 181.400 C 106.555 179.860,106.184 177.700,105.986 176.600 C 104.158 166.439,105.449 147.258,108.557 138.400 C 108.904 137.410,109.191 136.206,109.194 135.724 C 109.197 135.242,109.380 134.736,109.600 134.600 C 109.820 134.464,110.000 133.943,110.000 133.443 C 110.000 132.943,110.119 132.414,110.265 132.268 C 110.411 132.122,110.836 131.147,111.208 130.101 C 112.320 126.978,114.844 121.560,116.844 118.000 C 118.349 115.321,122.949 108.249,124.259 106.600 C 124.783 105.940,125.344 105.214,125.506 104.986 C 126.454 103.653,132.090 97.522,133.768 96.000 C 134.859 95.010,136.777 93.273,138.029 92.140 C 139.281 91.007,140.822 89.751,141.453 89.349 C 142.084 88.947,142.690 88.512,142.800 88.381 C 144.374 86.514,158.688 78.000,160.253 78.000 C 160.554 78.000,160.800 77.820,160.800 77.600 C 160.800 77.380,161.124 77.200,161.520 77.200 C 161.916 77.200,162.411 77.053,162.620 76.872 C 163.031 76.517,167.613 74.768,170.200 73.978 C 171.080 73.709,172.160 73.348,172.600 73.175 C 173.040 73.002,173.850 72.767,174.400 72.653 C 174.950 72.539,176.480 72.156,177.800 71.801 C 181.052 70.927,184.325 70.397,188.468 70.072 C 190.375 69.922,192.078 69.658,192.251 69.484 C 192.659 69.074,205.873 69.410,210.800 69.955 " stroke="none" fill="#e4e4e4" fill-rule="evenodd"></path><path id="path2" d="M196.882 69.896 C 198.358 69.973,200.878 69.973,202.482 69.897 C 204.087 69.821,202.880 69.758,199.800 69.758 C 196.720 69.757,195.407 69.819,196.882 69.896 M190.305 70.283 C 190.802 70.379,191.522 70.375,191.905 70.275 C 192.287 70.175,191.880 70.096,191.000 70.101 C 190.120 70.105,189.807 70.187,190.305 70.283 M207.500 70.282 C 207.995 70.378,208.805 70.378,209.300 70.282 C 209.795 70.187,209.390 70.109,208.400 70.109 C 207.410 70.109,207.005 70.187,207.500 70.282 M141.400 89.835 L 140.200 90.866 141.500 90.006 C 142.215 89.533,142.800 89.068,142.800 88.973 C 142.800 88.673,142.631 88.778,141.400 89.835 M138.378 92.300 L 137.000 93.800 138.500 92.422 C 139.325 91.663,140.000 90.988,140.000 90.922 C 140.000 90.616,139.662 90.904,138.378 92.300 M262.000 93.325 C 262.000 93.394,262.585 93.979,263.300 94.625 L 264.600 95.800 263.425 94.500 C 262.330 93.288,262.000 93.016,262.000 93.325 M132.400 97.800 C 130.761 99.450,129.510 100.800,129.620 100.800 C 129.730 100.800,131.161 99.450,132.800 97.800 C 134.439 96.150,135.690 94.800,135.580 94.800 C 135.470 94.800,134.039 96.150,132.400 97.800 M280.815 116.200 C 280.817 116.420,281.186 117.050,281.636 117.600 C 282.179 118.264,282.315 118.331,282.040 117.800 C 281.366 116.495,280.812 115.772,280.815 116.200 M293.301 155.400 C 293.305 156.280,293.387 156.593,293.483 156.095 C 293.579 155.598,293.575 154.878,293.475 154.495 C 293.375 154.113,293.296 154.520,293.301 155.400 M105.728 157.200 C 105.728 158.630,105.801 159.215,105.889 158.500 C 105.978 157.785,105.978 156.615,105.889 155.900 C 105.801 155.185,105.728 155.770,105.728 157.200 M293.755 163.400 C 293.756 166.260,293.820 167.378,293.897 165.883 C 293.974 164.389,293.974 162.049,293.896 160.683 C 293.818 159.318,293.755 160.540,293.755 163.400 M105.724 169.800 C 105.726 171.120,105.801 171.612,105.890 170.893 C 105.979 170.174,105.977 169.094,105.886 168.493 C 105.795 167.892,105.722 168.480,105.724 169.800 M293.301 171.800 C 293.305 172.680,293.387 172.993,293.483 172.495 C 293.579 171.998,293.575 171.278,293.475 170.895 C 293.375 170.513,293.296 170.920,293.301 171.800 M291.829 181.829 C 291.681 182.415,291.638 182.972,291.732 183.066 C 291.827 183.160,292.024 182.758,292.171 182.171 C 292.319 181.585,292.362 181.028,292.268 180.934 C 292.173 180.840,291.976 181.242,291.829 181.829 M271.375 224.100 L 270.200 225.400 271.500 224.225 C 272.215 223.579,272.800 222.994,272.800 222.925 C 272.800 222.616,272.470 222.888,271.375 224.100 M267.781 228.100 L 266.200 229.800 267.900 228.219 C 268.835 227.349,269.600 226.584,269.600 226.519 C 269.600 226.216,269.252 226.519,267.781 228.100 M264.378 231.500 L 263.000 233.000 264.500 231.622 C 265.896 230.338,266.184 230.000,265.878 230.000 C 265.812 230.000,265.137 230.675,264.378 231.500 M192.900 257.076 C 193.285 257.176,193.915 257.176,194.300 257.076 C 194.685 256.975,194.370 256.893,193.600 256.893 C 192.830 256.893,192.515 256.975,192.900 257.076 M205.105 257.083 C 205.602 257.179,206.322 257.175,206.705 257.075 C 207.087 256.975,206.680 256.896,205.800 256.901 C 204.920 256.905,204.607 256.987,205.105 257.083 M197.100 273.896 C 198.475 273.974,200.725 273.974,202.100 273.896 C 203.475 273.818,202.350 273.754,199.600 273.754 C 196.850 273.754,195.725 273.818,197.100 273.896 M272.400 296.946 C 272.400 297.056,272.940 297.530,273.600 298.000 C 274.260 298.470,274.800 298.764,274.800 298.654 C 274.800 298.544,274.260 298.070,273.600 297.600 C 272.940 297.130,272.400 296.836,272.400 296.946 M288.800 310.600 C 289.995 311.810,291.063 312.800,291.173 312.800 C 291.283 312.800,290.395 311.810,289.200 310.600 C 288.005 309.390,286.937 308.400,286.827 308.400 C 286.717 308.400,287.605 309.390,288.800 310.600 M293.183 314.900 C 294.841 316.666,295.200 316.984,295.200 316.683 C 295.200 316.619,294.345 315.764,293.300 314.783 L 291.400 313.000 293.183 314.900 M331.301 397.800 C 331.305 398.680,331.387 398.993,331.483 398.495 C 331.579 397.998,331.575 397.278,331.475 396.895 C 331.375 396.513,331.296 396.920,331.301 397.800 " stroke="none" fill="#c4c4c4" fill-rule="evenodd"></path><path id="path3" d="M195.900 70.298 C 197.935 70.371,201.265 70.371,203.300 70.298 C 205.335 70.225,203.670 70.166,199.600 70.166 C 195.530 70.166,193.865 70.225,195.900 70.298 M186.200 70.800 C 185.122 71.074,185.102 71.106,186.000 71.113 C 186.550 71.117,187.450 70.976,188.000 70.800 C 189.344 70.369,187.892 70.369,186.200 70.800 M211.200 70.780 C 212.199 71.120,214.682 71.332,214.367 71.051 C 214.275 70.969,213.300 70.799,212.200 70.672 C 210.851 70.516,210.526 70.551,211.200 70.780 M181.400 71.600 C 180.381 72.038,181.432 72.038,182.800 71.600 C 183.604 71.343,183.643 71.277,183.000 71.268 C 182.560 71.262,181.840 71.411,181.400 71.600 M216.600 71.600 C 217.040 71.789,217.760 71.938,218.200 71.932 C 218.843 71.923,218.804 71.857,218.000 71.600 C 216.632 71.162,215.581 71.162,216.600 71.600 M176.000 72.800 C 175.196 73.057,175.157 73.123,175.800 73.132 C 176.240 73.138,176.960 72.989,177.400 72.800 C 178.419 72.362,177.368 72.362,176.000 72.800 M222.000 72.794 C 222.330 73.011,223.035 73.191,223.567 73.194 C 224.851 73.202,224.525 72.975,222.800 72.658 C 221.815 72.477,221.578 72.518,222.000 72.794 M165.400 76.214 C 163.785 76.954,164.751 76.955,166.454 76.216 C 167.194 75.894,167.530 75.639,167.200 75.648 C 166.870 75.657,166.060 75.912,165.400 76.214 M232.946 76.202 C 233.576 76.531,234.296 76.799,234.546 76.798 C 234.796 76.796,234.484 76.526,233.854 76.198 C 233.224 75.869,232.504 75.601,232.254 75.602 C 232.004 75.604,232.316 75.874,232.946 76.202 M155.341 80.797 C 154.868 80.988,154.370 81.324,154.234 81.545 C 154.098 81.765,154.530 81.675,155.193 81.343 C 155.857 81.012,156.400 80.665,156.400 80.571 C 156.400 80.366,156.420 80.362,155.341 80.797 M249.686 84.600 C 250.495 85.150,251.299 85.600,251.472 85.600 C 251.644 85.600,251.123 85.150,250.314 84.600 C 249.505 84.050,248.701 83.600,248.528 83.600 C 248.356 83.600,248.877 84.050,249.686 84.600 M256.602 89.413 C 258.530 90.850,260.161 91.973,260.226 91.907 C 260.382 91.751,253.743 86.800,253.378 86.800 C 253.224 86.800,254.675 87.976,256.602 89.413 M262.696 94.426 C 263.963 95.541,266.596 98.106,268.547 100.126 C 271.644 103.334,271.778 103.435,269.608 100.922 C 267.256 98.198,261.149 92.400,260.632 92.400 C 260.500 92.400,261.428 93.312,262.696 94.426 M132.413 98.187 C 130.338 100.270,128.722 102.026,128.821 102.089 C 128.919 102.153,130.700 100.448,132.778 98.302 C 134.856 96.156,136.472 94.400,136.370 94.400 C 136.268 94.400,134.487 96.104,132.413 98.187 M123.600 108.400 C 123.130 109.060,122.836 109.600,122.946 109.600 C 123.056 109.600,123.530 109.060,124.000 108.400 C 124.470 107.740,124.764 107.200,124.654 107.200 C 124.544 107.200,124.070 107.740,123.600 108.400 M275.705 108.962 C 276.197 109.734,276.747 110.374,276.927 110.383 C 277.289 110.402,275.784 108.161,275.186 107.791 C 274.979 107.663,275.212 108.190,275.705 108.962 M120.502 112.900 C 119.936 113.615,119.140 115.200,119.346 115.200 C 119.442 115.200,119.893 114.570,120.347 113.800 C 121.173 112.401,121.249 111.957,120.502 112.900 M109.246 137.667 C 109.221 138.034,109.096 138.664,108.970 139.067 C 108.752 139.762,108.763 139.763,109.197 139.087 C 109.448 138.696,109.573 138.066,109.473 137.687 C 109.311 137.068,109.288 137.066,109.246 137.667 M108.454 140.667 C 108.425 141.144,108.296 141.864,108.170 142.267 C 107.952 142.961,107.964 142.962,108.396 142.288 C 108.647 141.897,108.775 141.177,108.681 140.688 C 108.509 139.801,108.509 139.801,108.454 140.667 M291.668 145.400 C 291.662 145.840,291.811 146.560,292.000 147.000 C 292.438 148.019,292.438 146.968,292.000 145.600 C 291.743 144.796,291.677 144.757,291.668 145.400 M107.022 147.022 C 106.872 147.825,106.828 148.562,106.926 148.660 C 107.024 148.757,107.227 148.181,107.378 147.378 C 107.528 146.575,107.572 145.838,107.474 145.740 C 107.376 145.643,107.173 146.219,107.022 147.022 M292.440 150.233 C 292.462 150.875,292.633 151.850,292.820 152.400 C 293.049 153.074,293.084 152.749,292.928 151.400 C 292.669 149.150,292.379 148.459,292.440 150.233 M106.218 152.618 C 106.065 153.639,106.030 154.563,106.140 154.673 C 106.250 154.783,106.465 154.039,106.618 153.018 C 106.771 151.998,106.806 151.073,106.696 150.963 C 106.586 150.853,106.371 151.598,106.218 152.618 M293.365 163.600 C 293.365 167.450,293.425 169.025,293.498 167.100 C 293.571 165.175,293.571 162.025,293.498 160.100 C 293.425 158.175,293.365 159.750,293.365 163.600 M105.748 163.600 C 105.748 165.910,105.814 166.855,105.895 165.700 C 105.976 164.545,105.976 162.655,105.895 161.500 C 105.814 160.345,105.748 161.290,105.748 163.600 M106.075 173.000 C 106.086 173.440,106.232 174.340,106.400 175.000 L 106.705 176.200 106.725 175.000 C 106.735 174.340,106.589 173.440,106.400 173.000 L 106.056 172.200 106.075 173.000 M292.600 175.600 C 292.446 176.510,292.404 177.338,292.507 177.440 C 292.610 177.543,292.813 176.877,292.960 175.960 C 293.107 175.043,293.148 174.215,293.053 174.120 C 292.958 174.024,292.754 174.690,292.600 175.600 M106.880 178.600 C 106.880 179.040,107.024 179.850,107.200 180.400 C 107.454 181.192,107.520 181.233,107.520 180.600 C 107.520 180.160,107.376 179.350,107.200 178.800 C 106.946 178.008,106.880 177.967,106.880 178.600 M291.850 180.450 C 291.517 182.117,291.840 182.440,292.200 180.800 C 292.352 180.109,292.393 179.459,292.291 179.358 C 292.189 179.256,291.991 179.747,291.850 180.450 M107.606 182.833 C 107.609 183.365,107.789 184.070,108.006 184.400 C 108.282 184.822,108.323 184.585,108.142 183.600 C 107.825 181.875,107.598 181.549,107.606 182.833 M111.214 195.254 C 111.206 195.394,111.463 196.114,111.784 196.854 C 112.106 197.594,112.369 197.930,112.370 197.600 C 112.372 197.024,111.243 194.734,111.214 195.254 M115.600 205.296 C 115.600 205.713,117.340 208.793,117.491 208.642 C 117.573 208.561,117.251 207.798,116.777 206.947 C 115.851 205.287,115.600 204.935,115.600 205.296 M278.897 213.434 C 277.961 214.845,277.279 216.000,277.383 216.000 C 277.653 216.000,280.898 211.165,280.736 211.003 C 280.661 210.929,279.834 212.023,278.897 213.434 M123.570 218.500 C 124.519 219.765,125.376 220.800,125.473 220.800 C 125.746 220.800,123.115 217.225,122.441 216.682 C 122.113 216.417,122.621 217.235,123.570 218.500 M275.147 218.900 C 274.647 219.615,274.140 220.290,274.019 220.400 C 273.215 221.134,272.631 222.176,273.334 221.623 C 274.104 221.018,276.578 217.600,276.246 217.600 C 276.141 217.600,275.646 218.185,275.147 218.900 M127.200 223.200 C 128.121 224.300,128.950 225.200,129.043 225.200 C 129.362 225.200,126.200 221.246,125.863 221.223 C 125.677 221.210,126.279 222.100,127.200 223.200 M266.000 229.390 C 263.690 231.804,262.790 232.884,264.000 231.790 C 266.620 229.421,270.598 225.237,270.365 225.098 C 270.274 225.044,268.310 226.975,266.000 229.390 M132.686 229.199 C 133.833 230.389,134.831 231.280,134.903 231.181 C 134.976 231.081,134.037 230.108,132.818 229.018 L 130.600 227.036 132.686 229.199 M137.964 234.135 C 138.549 234.863,140.800 236.577,140.800 236.294 C 140.800 236.206,140.035 235.526,139.100 234.783 C 138.165 234.040,137.654 233.748,137.964 234.135 M259.000 235.860 C 257.795 236.936,257.705 237.085,258.636 236.463 C 259.741 235.724,261.132 234.376,260.749 234.415 C 260.667 234.423,259.880 235.073,259.000 235.860 M143.200 238.146 C 143.200 238.256,143.740 238.730,144.400 239.200 C 145.060 239.670,145.600 239.964,145.600 239.854 C 145.600 239.744,145.060 239.270,144.400 238.800 C 143.740 238.330,143.200 238.036,143.200 238.146 M254.200 239.444 L 252.600 240.876 254.400 239.561 C 255.390 238.837,256.275 238.190,256.367 238.123 C 256.458 238.055,256.368 238.003,256.167 238.006 C 255.965 238.009,255.080 238.656,254.200 239.444 M146.000 240.300 C 146.000 240.469,146.360 240.832,146.800 241.107 C 147.240 241.382,147.600 241.469,147.600 241.300 C 147.600 241.131,147.240 240.768,146.800 240.493 C 146.360 240.218,146.000 240.131,146.000 240.300 M148.400 242.020 C 149.787 242.961,150.578 243.235,149.600 242.436 C 149.050 241.986,148.420 241.617,148.200 241.615 C 147.980 241.613,148.070 241.796,148.400 242.020 M248.011 243.420 C 246.184 244.709,246.813 244.692,248.714 243.400 C 249.523 242.850,250.009 242.409,249.793 242.420 C 249.577 242.430,248.775 242.880,248.011 243.420 M155.633 246.157 C 156.083 246.581,158.913 248.020,159.042 247.891 C 159.124 247.810,158.455 247.351,157.557 246.872 C 156.070 246.077,155.210 245.758,155.633 246.157 M240.300 247.627 C 239.475 248.063,238.800 248.508,238.800 248.618 C 238.800 248.796,241.959 247.319,242.367 246.951 C 242.827 246.534,241.625 246.928,240.300 247.627 M164.833 250.556 C 164.925 250.642,165.810 250.987,166.800 251.324 C 167.790 251.660,168.960 252.069,169.400 252.231 C 169.840 252.394,170.088 252.402,169.951 252.248 C 169.666 251.928,165.603 250.400,165.039 250.400 C 164.834 250.400,164.742 250.470,164.833 250.556 M230.200 251.814 C 228.585 252.554,229.551 252.555,231.254 251.816 C 231.994 251.494,232.330 251.239,232.000 251.248 C 231.670 251.257,230.860 251.512,230.200 251.814 M176.800 254.400 C 178.168 254.838,179.219 254.838,178.200 254.400 C 177.760 254.211,177.040 254.062,176.600 254.068 C 175.957 254.077,175.996 254.143,176.800 254.400 M221.200 254.418 C 220.762 254.715,220.924 254.752,221.800 254.556 C 223.271 254.227,223.590 253.998,222.567 254.006 C 222.145 254.009,221.530 254.195,221.200 254.418 M179.633 254.947 C 179.725 255.028,180.520 255.204,181.400 255.338 C 182.515 255.507,182.758 255.471,182.200 255.219 C 181.432 254.871,179.290 254.644,179.633 254.947 M217.506 255.028 C 217.381 255.153,216.406 255.416,215.339 255.612 L 213.400 255.969 215.200 255.792 C 218.141 255.502,220.523 254.904,218.967 254.846 C 218.288 254.821,217.631 254.902,217.506 255.028 M183.700 255.876 C 184.085 255.976,184.715 255.976,185.100 255.876 C 185.485 255.775,185.170 255.693,184.400 255.693 C 183.630 255.693,183.315 255.775,183.700 255.876 M187.400 256.400 C 189.092 256.831,190.544 256.831,189.200 256.400 C 188.650 256.224,187.750 256.083,187.200 256.087 C 186.302 256.094,186.322 256.126,187.400 256.400 M210.200 256.419 C 209.642 256.671,209.885 256.707,211.000 256.538 C 211.880 256.404,212.675 256.228,212.767 256.147 C 213.110 255.844,210.968 256.071,210.200 256.419 M197.100 257.096 C 198.475 257.174,200.725 257.174,202.100 257.096 C 203.475 257.018,202.350 256.954,199.600 256.954 C 196.850 256.954,195.725 257.018,197.100 257.096 M189.800 274.400 L 188.200 274.686 189.600 274.708 C 190.370 274.720,191.900 274.590,193.000 274.418 L 195.000 274.107 193.200 274.110 C 192.210 274.112,190.680 274.242,189.800 274.400 M206.600 274.418 C 207.700 274.590,209.230 274.722,210.000 274.712 C 211.133 274.697,211.018 274.634,209.400 274.382 C 208.300 274.210,206.770 274.078,206.000 274.088 C 204.867 274.103,204.982 274.166,206.600 274.418 M182.000 275.200 L 181.000 275.520 182.000 275.520 C 182.550 275.520,183.450 275.376,184.000 275.200 L 185.000 274.880 184.000 274.880 C 183.450 274.880,182.550 275.024,182.000 275.200 M215.600 275.200 C 216.150 275.376,216.960 275.520,217.400 275.520 C 218.033 275.520,217.992 275.454,217.200 275.200 C 216.650 275.024,215.840 274.880,215.400 274.880 C 214.767 274.880,214.808 274.946,215.600 275.200 M176.200 276.209 C 173.532 276.895,175.156 276.894,178.200 276.208 C 179.604 275.891,180.102 275.673,179.400 275.681 C 178.740 275.689,177.300 275.926,176.200 276.209 M219.300 275.876 C 219.685 275.976,220.315 275.976,220.700 275.876 C 221.085 275.775,220.770 275.693,220.000 275.693 C 219.230 275.693,218.915 275.775,219.300 275.876 M222.200 276.390 C 222.964 276.728,225.514 276.957,225.167 276.656 C 225.075 276.576,224.190 276.404,223.200 276.273 C 221.998 276.114,221.666 276.153,222.200 276.390 M171.600 277.200 C 170.776 277.464,170.741 277.526,171.400 277.554 C 171.840 277.573,172.470 277.413,172.800 277.200 C 173.501 276.747,173.014 276.747,171.600 277.200 M226.400 277.200 C 226.730 277.413,227.450 277.573,228.000 277.554 L 229.000 277.520 228.000 277.200 C 226.458 276.706,225.636 276.706,226.400 277.200 M236.346 279.816 C 237.086 280.137,237.986 280.392,238.346 280.382 C 238.706 280.373,238.280 280.105,237.400 279.788 C 235.327 279.042,234.606 279.060,236.346 279.816 M248.400 284.200 C 248.950 284.514,249.580 284.772,249.800 284.772 C 250.020 284.772,249.750 284.514,249.200 284.200 C 248.650 283.886,248.020 283.628,247.800 283.628 C 247.580 283.628,247.850 283.886,248.400 284.200 M262.400 290.930 C 262.400 291.140,266.391 293.601,266.727 293.597 C 267.058 293.594,265.021 292.188,263.500 291.371 C 262.895 291.046,262.400 290.847,262.400 290.930 M130.300 294.808 C 129.255 295.465,128.400 296.089,128.400 296.197 C 128.400 296.305,129.300 295.839,130.400 295.162 C 131.500 294.485,132.400 293.857,132.400 293.766 C 132.400 293.502,132.303 293.550,130.300 294.808 M270.600 296.165 C 271.260 296.732,271.965 297.197,272.167 297.198 C 272.601 297.200,272.596 297.196,270.800 296.037 L 269.400 295.134 270.600 296.165 M123.600 299.473 C 120.923 301.531,120.686 301.960,123.200 300.194 C 124.410 299.345,125.475 298.593,125.567 298.525 C 125.658 298.456,125.658 298.330,125.567 298.244 C 125.475 298.159,124.590 298.712,123.600 299.473 M274.800 298.908 C 274.800 299.210,278.054 301.679,278.226 301.507 C 278.321 301.412,277.589 300.753,276.599 300.042 C 275.610 299.332,274.800 298.821,274.800 298.908 M119.478 302.634 C 118.860 303.165,118.500 303.594,118.678 303.587 C 119.121 303.568,120.951 302.017,120.757 301.824 C 120.670 301.738,120.095 302.103,119.478 302.634 M279.962 302.926 C 280.582 303.704,283.600 306.168,283.600 305.896 C 283.600 305.802,282.655 304.937,281.500 303.974 C 280.345 303.010,279.653 302.539,279.962 302.926 M114.705 306.632 C 113.883 307.384,113.344 307.995,113.506 307.988 C 113.897 307.973,116.515 305.582,116.337 305.403 C 116.260 305.327,115.526 305.880,114.705 306.632 M286.000 308.200 C 286.746 308.970,287.447 309.600,287.557 309.600 C 287.667 309.600,287.146 308.970,286.400 308.200 C 285.654 307.430,284.953 306.800,284.843 306.800 C 284.733 306.800,285.254 307.430,286.000 308.200 M108.093 312.907 C 105.842 315.166,104.000 317.158,104.000 317.335 C 104.000 317.512,104.225 317.405,104.500 317.097 C 104.775 316.789,106.706 314.796,108.792 312.668 C 110.878 310.541,112.495 308.800,112.385 308.800 C 112.275 308.800,110.344 310.648,108.093 312.907 M294.783 316.900 C 295.764 317.945,296.619 318.800,296.683 318.800 C 296.984 318.800,296.666 318.441,294.900 316.783 L 293.000 315.000 294.783 316.900 M102.434 318.953 L 101.469 320.200 102.613 319.112 C 103.243 318.514,103.677 317.953,103.579 317.865 C 103.480 317.777,102.965 318.267,102.434 318.953 M298.354 321.136 C 298.799 321.760,299.479 322.525,299.865 322.836 C 300.252 323.146,299.960 322.635,299.217 321.700 C 297.691 319.780,297.125 319.410,298.354 321.136 M99.600 322.400 C 98.679 323.500,98.016 324.400,98.126 324.400 C 98.236 324.400,99.079 323.500,100.000 322.400 C 100.921 321.300,101.584 320.400,101.474 320.400 C 101.364 320.400,100.521 321.300,99.600 322.400 M302.000 325.600 C 302.921 326.700,303.764 327.600,303.874 327.600 C 303.984 327.600,303.321 326.700,302.400 325.600 C 301.479 324.500,300.636 323.600,300.526 323.600 C 300.416 323.600,301.079 324.500,302.000 325.600 M96.127 326.700 C 93.694 329.686,93.479 330.000,93.865 330.000 C 94.064 330.000,94.522 329.505,94.883 328.900 C 95.243 328.295,95.867 327.438,96.269 326.995 C 97.467 325.675,98.112 324.800,97.886 324.800 C 97.770 324.800,96.978 325.655,96.127 326.700 M304.834 329.200 C 306.015 331.023,306.000 331.006,306.000 330.489 C 306.000 330.245,305.533 329.540,304.963 328.922 L 303.927 327.800 304.834 329.200 M91.200 333.400 C 90.519 334.390,90.105 335.194,90.281 335.187 C 90.600 335.175,92.915 331.600,92.604 331.600 C 92.513 331.600,91.881 332.410,91.200 333.400 M308.400 334.146 C 308.400 334.299,309.210 335.633,310.200 337.108 C 311.190 338.584,312.000 339.664,312.000 339.509 C 312.000 339.249,309.026 334.493,308.591 334.058 C 308.486 333.953,308.400 333.992,308.400 334.146 M88.095 338.223 C 87.603 338.974,87.200 339.723,87.200 339.887 C 87.200 340.051,87.666 339.500,88.236 338.662 C 88.805 337.824,89.208 337.075,89.131 336.998 C 89.054 336.920,88.588 337.472,88.095 338.223 M83.671 345.959 C 83.192 346.811,82.802 347.664,82.805 347.854 C 82.807 348.045,83.262 347.409,83.814 346.443 C 84.367 345.476,84.757 344.623,84.681 344.547 C 84.604 344.471,84.150 345.106,83.671 345.959 M318.028 351.000 C 318.028 351.220,318.286 351.850,318.600 352.400 C 318.914 352.950,319.172 353.220,319.172 353.000 C 319.172 352.780,318.914 352.150,318.600 351.600 C 318.286 351.050,318.028 350.780,318.028 351.000 M80.106 353.113 C 78.940 355.502,79.193 355.748,80.400 353.400 C 80.911 352.407,81.254 351.524,81.164 351.438 C 81.074 351.352,80.598 352.105,80.106 353.113 M319.807 355.079 C 320.407 356.514,320.800 357.162,320.800 356.716 C 320.800 356.284,319.585 353.600,319.389 353.600 C 319.279 353.600,319.467 354.266,319.807 355.079 M323.230 363.600 C 323.228 364.176,324.357 366.466,324.386 365.946 C 324.394 365.806,324.137 365.086,323.816 364.346 C 323.494 363.606,323.231 363.270,323.230 363.600 M75.291 364.900 C 74.610 366.784,74.704 367.294,75.426 365.630 C 75.753 364.877,75.966 364.099,75.901 363.902 C 75.835 363.705,75.560 364.154,75.291 364.900 M70.600 381.200 C 70.450 381.673,70.417 382.150,70.527 382.260 C 70.637 382.370,70.850 382.073,71.000 381.600 C 71.150 381.127,71.183 380.650,71.073 380.540 C 70.963 380.430,70.750 380.727,70.600 381.200 M328.868 383.400 C 328.862 383.840,329.011 384.560,329.200 385.000 C 329.638 386.019,329.638 384.968,329.200 383.600 C 328.943 382.796,328.877 382.757,328.868 383.400 M69.829 385.029 C 69.681 385.615,69.651 386.184,69.761 386.294 C 69.871 386.404,70.081 386.015,70.229 385.429 C 70.376 384.842,70.406 384.273,70.296 384.163 C 70.186 384.053,69.976 384.442,69.829 385.029 M329.628 388.033 C 329.644 388.565,329.819 389.360,330.019 389.800 C 330.271 390.358,330.307 390.115,330.138 389.000 C 329.855 387.143,329.587 386.636,329.628 388.033 M69.259 389.000 C 69.220 389.660,69.096 390.650,68.983 391.200 L 68.777 392.200 69.208 391.214 C 69.444 390.672,69.568 389.682,69.483 389.014 L 69.328 387.800 69.259 389.000 M330.447 393.433 C 330.473 394.515,330.635 395.940,330.806 396.600 C 330.988 397.303,331.028 396.558,330.903 394.800 C 330.657 391.359,330.377 390.518,330.447 393.433 M68.280 396.566 C 68.126 398.308,68.073 399.807,68.164 399.898 C 68.411 400.144,68.906 395.036,68.721 394.158 C 68.633 393.741,68.435 394.825,68.280 396.566 " stroke="none" fill="#bcbcbc" fill-rule="evenodd"></path><path id="path4" d="M192.138 69.506 C 191.884 69.668,195.242 69.800,199.600 69.800 C 203.957 69.800,207.315 69.668,207.061 69.506 C 206.808 69.344,203.450 69.212,199.600 69.212 C 195.750 69.212,192.392 69.344,192.138 69.506 M184.800 70.402 C 184.396 70.665,185.051 70.710,186.800 70.540 C 188.230 70.402,189.475 70.223,189.567 70.144 C 189.965 69.800,185.341 70.051,184.800 70.402 M210.033 70.147 C 210.125 70.228,211.370 70.402,212.800 70.535 C 214.476 70.691,215.116 70.648,214.600 70.416 C 213.847 70.077,209.675 69.831,210.033 70.147 M179.200 71.448 L 177.400 71.992 179.000 71.784 C 179.880 71.669,181.410 71.425,182.400 71.241 L 184.200 70.907 182.600 70.906 C 181.720 70.905,180.190 71.149,179.200 71.448 M217.000 71.187 C 217.880 71.371,219.320 71.627,220.200 71.754 L 221.800 71.986 220.400 71.554 C 219.630 71.317,218.190 71.062,217.200 70.987 L 215.400 70.852 217.000 71.187 M175.600 72.400 C 175.067 72.745,175.067 72.788,175.600 72.788 C 175.930 72.788,176.470 72.613,176.800 72.400 C 177.333 72.055,177.333 72.012,176.800 72.012 C 176.470 72.012,175.930 72.187,175.600 72.400 M222.600 72.400 C 223.796 72.914,224.795 72.914,224.000 72.400 C 223.670 72.187,223.040 72.022,222.600 72.034 L 221.800 72.056 222.600 72.400 M172.600 73.200 C 172.308 73.673,172.699 73.673,173.800 73.200 C 174.571 72.869,174.569 72.855,173.724 72.828 C 173.242 72.813,172.736 72.980,172.600 73.200 M169.800 73.997 C 169.360 74.186,167.650 74.836,166.000 75.442 C 164.350 76.049,162.820 76.719,162.600 76.931 C 162.105 77.410,161.690 77.556,170.200 74.261 C 171.080 73.920,171.530 73.644,171.200 73.648 C 170.870 73.651,170.240 73.809,169.800 73.997 M227.633 73.749 C 227.725 73.830,228.970 74.292,230.400 74.775 C 231.830 75.258,233.405 75.851,233.899 76.094 C 234.394 76.336,234.895 76.438,235.012 76.321 C 235.130 76.204,234.635 75.888,233.913 75.620 C 233.191 75.353,232.287 74.968,231.905 74.767 C 231.523 74.565,230.859 74.400,230.429 74.400 C 229.999 74.400,229.536 74.220,229.400 74.000 C 229.264 73.780,228.773 73.600,228.310 73.600 C 227.846 73.600,227.542 73.667,227.633 73.749 M157.063 79.276 C 155.777 79.927,154.798 80.531,154.886 80.619 C 154.974 80.708,156.296 80.163,157.823 79.408 C 159.350 78.654,160.330 78.050,160.000 78.065 C 159.670 78.081,158.348 78.626,157.063 79.276 M239.233 78.141 C 239.869 78.678,244.140 80.793,244.289 80.644 C 244.477 80.456,242.737 79.434,240.654 78.509 C 239.551 78.019,238.885 77.847,239.233 78.141 M149.995 83.337 C 145.836 85.991,142.810 88.174,142.805 88.523 C 142.802 88.701,143.835 88.063,145.100 87.105 C 146.365 86.148,148.705 84.586,150.300 83.636 C 151.895 82.686,153.200 81.839,153.200 81.754 C 153.200 81.399,152.458 81.765,149.995 83.337 M246.611 82.152 C 248.074 83.174,250.461 84.423,250.226 84.042 C 249.985 83.652,246.485 81.600,246.061 81.600 C 245.929 81.600,246.177 81.848,246.611 82.152 M251.594 85.182 C 252.141 85.602,252.668 85.866,252.765 85.769 C 252.991 85.542,251.529 84.427,251.000 84.422 C 250.780 84.420,251.047 84.761,251.594 85.182 M253.420 86.336 C 253.629 86.520,255.330 87.852,257.200 89.294 C 259.070 90.736,261.815 93.031,263.300 94.393 C 264.785 95.756,266.000 96.741,266.000 96.581 C 266.000 96.422,265.583 95.911,265.072 95.446 C 261.862 92.519,259.969 90.877,258.795 90.000 C 258.059 89.450,256.594 88.325,255.540 87.500 C 253.907 86.222,252.279 85.328,253.420 86.336 M140.954 89.675 C 140.319 90.156,138.893 91.371,137.785 92.375 C 136.678 93.379,134.874 95.010,133.778 96.000 C 132.097 97.518,126.468 103.633,125.506 104.986 C 125.344 105.214,124.790 105.940,124.273 106.600 C 122.521 108.839,119.969 112.800,120.285 112.789 C 120.458 112.782,121.220 111.753,121.978 110.501 C 125.099 105.350,135.985 93.694,141.400 89.709 C 142.060 89.223,142.489 88.820,142.354 88.813 C 142.219 88.806,141.589 89.194,140.954 89.675 M269.146 100.100 C 270.020 101.035,271.290 102.500,271.968 103.355 C 272.645 104.210,273.194 104.750,273.187 104.555 C 273.163 103.880,268.473 98.400,267.920 98.400 C 267.720 98.400,268.271 99.165,269.146 100.100 M273.600 104.962 C 273.600 105.112,274.360 106.261,275.288 107.517 C 276.216 108.773,277.925 111.240,279.086 113.000 C 280.246 114.760,281.197 116.060,281.198 115.888 C 281.199 115.717,280.056 113.827,278.658 111.688 C 276.107 107.788,273.600 104.453,273.600 104.962 M118.460 115.227 C 117.245 117.180,116.826 118.170,117.547 117.380 C 118.076 116.801,120.101 113.200,119.898 113.200 C 119.800 113.200,119.153 114.112,118.460 115.227 M283.659 120.913 C 284.612 122.845,285.444 124.268,285.509 124.074 C 285.631 123.707,282.974 118.499,282.308 117.800 C 282.099 117.580,282.707 118.981,283.659 120.913 M116.362 118.866 C 114.336 122.626,113.602 124.142,113.612 124.541 C 113.618 124.793,114.422 123.479,115.398 121.620 C 116.374 119.761,117.104 118.170,117.019 118.086 C 116.934 118.001,116.638 118.352,116.362 118.866 M111.620 129.086 C 111.134 130.359,110.570 131.713,110.368 132.095 C 110.166 132.477,110.009 133.107,110.021 133.495 C 110.032 133.883,110.319 133.480,110.657 132.600 C 111.470 130.489,111.806 129.633,112.365 128.248 C 112.621 127.615,112.757 127.023,112.667 126.934 C 112.578 126.844,112.107 127.813,111.620 129.086 M287.440 129.000 C 288.220 131.483,289.170 133.691,289.161 133.000 C 289.155 132.560,288.709 131.300,288.170 130.200 C 287.630 129.100,287.302 128.560,287.440 129.000 M289.228 134.276 C 289.318 135.315,289.944 136.196,289.972 135.324 C 289.987 134.842,289.820 134.336,289.600 134.200 C 289.380 134.064,289.213 134.098,289.228 134.276 M109.467 134.667 C 109.320 134.813,109.211 135.308,109.225 135.767 C 109.249 136.533,109.282 136.523,109.634 135.642 C 110.026 134.663,109.944 134.189,109.467 134.667 M290.028 136.676 C 290.118 137.715,290.744 138.596,290.772 137.724 C 290.787 137.242,290.620 136.736,290.400 136.600 C 290.180 136.464,290.013 136.498,290.028 136.676 M108.600 138.000 C 108.450 138.473,108.417 138.950,108.527 139.060 C 108.637 139.170,108.850 138.873,109.000 138.400 C 109.150 137.927,109.183 137.450,109.073 137.340 C 108.963 137.230,108.750 137.527,108.600 138.000 M290.834 139.600 C 290.846 139.930,291.011 140.560,291.200 141.000 L 291.544 141.800 291.566 141.000 C 291.578 140.560,291.413 139.930,291.200 139.600 C 290.855 139.067,290.815 139.067,290.834 139.600 M107.586 141.900 C 107.327 143.165,106.954 144.722,106.758 145.360 C 106.561 145.998,106.425 147.168,106.454 147.960 C 106.495 149.023,106.553 149.138,106.677 148.400 C 106.829 147.501,107.791 142.807,108.296 140.500 C 108.405 140.005,108.395 139.600,108.275 139.600 C 108.155 139.600,107.845 140.635,107.586 141.900 M291.831 143.400 C 291.967 144.280,292.218 145.720,292.389 146.600 L 292.700 148.200 292.744 146.800 C 292.768 146.030,292.517 144.590,292.186 143.600 L 291.584 141.800 291.831 143.400 M293.087 151.000 C 293.211 152.540,293.377 153.875,293.456 153.967 C 293.759 154.317,293.527 149.761,293.203 149.000 C 292.997 148.516,292.951 149.308,293.087 151.000 M105.876 150.410 C 105.730 150.955,105.630 152.210,105.654 153.200 C 105.696 154.951,105.707 154.934,106.048 152.600 C 106.420 150.052,106.318 148.757,105.876 150.410 M293.800 163.361 C 293.800 167.876,293.922 171.262,294.072 170.885 C 294.417 170.014,294.407 157.309,294.060 156.076 C 293.917 155.568,293.800 158.847,293.800 163.361 M105.083 161.100 C 104.955 162.805,104.995 165.370,105.171 166.800 C 105.446 169.041,105.498 168.614,105.545 163.700 C 105.606 157.367,105.435 156.403,105.083 161.100 M105.628 173.833 C 105.644 174.915,105.818 176.160,106.016 176.600 C 106.248 177.116,106.291 176.476,106.135 174.800 C 105.842 171.639,105.590 171.158,105.628 173.833 M293.270 174.400 C 293.226 175.170,293.099 176.520,292.985 177.400 C 292.806 178.792,292.835 178.872,293.208 178.016 C 293.443 177.476,293.571 176.126,293.492 175.016 C 293.390 173.582,293.325 173.404,293.270 174.400 M106.460 178.600 C 106.392 179.973,107.388 185.042,108.004 186.453 L 108.417 187.400 108.238 186.400 C 108.139 185.850,107.785 184.140,107.450 182.600 C 107.115 181.060,106.769 179.260,106.680 178.600 L 106.520 177.400 106.460 178.600 M292.295 180.800 C 291.776 184.038,291.599 185.407,291.752 185.000 C 292.444 183.164,292.846 181.179,292.727 180.188 C 292.602 179.155,292.546 179.234,292.295 180.800 M291.000 186.400 C 290.850 186.873,290.817 187.350,290.927 187.460 C 291.037 187.570,291.250 187.273,291.400 186.800 C 291.550 186.327,291.583 185.850,291.473 185.740 C 291.363 185.630,291.150 185.927,291.000 186.400 M289.201 192.846 C 288.891 193.811,288.133 195.843,287.516 197.363 C 286.898 198.883,286.474 200.208,286.573 200.306 C 286.780 200.513,287.790 198.225,288.650 195.600 C 288.975 194.610,289.432 193.413,289.667 192.939 C 289.901 192.466,290.019 191.857,289.928 191.585 C 289.838 191.314,289.511 191.881,289.201 192.846 M110.016 193.476 C 110.007 193.958,110.180 194.464,110.400 194.600 C 110.620 194.736,110.821 195.242,110.846 195.724 C 110.875 196.267,110.956 196.364,111.060 195.979 C 111.153 195.638,110.959 194.738,110.630 193.979 C 110.158 192.893,110.028 192.786,110.016 193.476 M113.600 202.462 C 113.600 202.923,116.055 207.678,116.212 207.521 C 116.307 207.426,115.831 206.280,115.155 204.974 C 113.942 202.631,113.600 202.079,113.600 202.462 M283.662 206.062 C 283.177 206.970,282.842 207.776,282.918 207.852 C 282.995 207.928,283.454 207.247,283.938 206.338 C 284.423 205.430,284.758 204.624,284.682 204.548 C 284.605 204.472,284.146 205.153,283.662 206.062 M116.409 208.300 C 116.414 208.465,116.785 209.050,117.233 209.600 L 118.048 210.600 117.414 209.300 C 116.811 208.065,116.389 207.645,116.409 208.300 M280.094 212.524 C 279.166 214.106,278.832 214.887,279.351 214.259 C 280.354 213.047,282.101 209.968,281.900 209.767 C 281.834 209.701,281.021 210.942,280.094 212.524 M118.000 210.921 C 118.000 211.325,121.712 216.986,122.074 217.133 C 122.253 217.207,122.400 217.442,122.400 217.656 C 122.400 218.845,133.165 230.903,137.000 234.010 C 137.660 234.544,136.189 232.916,133.730 230.391 C 126.557 223.023,125.104 221.266,120.828 214.800 C 118.112 210.693,118.000 210.540,118.000 210.921 M276.763 217.472 C 273.057 222.907,267.168 229.425,261.895 233.926 C 256.048 238.918,256.420 238.570,258.055 237.521 C 262.010 234.983,270.766 226.137,275.105 220.296 C 276.287 218.703,277.526 217.068,277.856 216.662 C 278.187 216.256,278.372 215.838,278.267 215.734 C 278.163 215.629,277.486 216.411,276.763 217.472 M138.409 235.081 C 138.417 235.396,141.600 237.801,141.600 237.493 C 141.600 237.405,140.880 236.755,140.000 236.048 C 139.120 235.341,138.404 234.906,138.409 235.081 M142.017 237.906 C 142.040 238.289,147.246 242.087,147.458 241.875 C 147.547 241.786,146.356 240.790,144.810 239.663 C 143.265 238.535,142.008 237.745,142.017 237.906 M254.400 239.842 C 253.410 240.631,252.088 241.543,251.463 241.868 C 250.837 242.193,250.419 242.552,250.532 242.665 C 250.778 242.911,255.203 239.961,255.965 239.042 C 256.778 238.063,256.374 238.269,254.400 239.842 M149.200 242.940 C 149.200 243.139,153.198 245.600,153.521 245.600 C 153.669 245.600,152.854 244.970,151.710 244.200 C 149.758 242.885,149.200 242.605,149.200 242.940 M247.122 244.531 C 245.648 245.436,244.501 246.234,244.572 246.305 C 244.757 246.490,249.517 243.659,249.805 243.192 C 250.123 242.677,250.206 242.636,247.122 244.531 M239.400 248.604 C 236.980 249.779,235.148 250.754,235.329 250.771 C 235.801 250.813,244.000 246.891,244.000 246.623 C 244.000 246.342,244.503 246.126,239.400 248.604 M156.800 247.383 C 156.800 247.642,161.702 250.004,162.194 249.982 C 162.521 249.967,157.258 247.200,156.903 247.200 C 156.846 247.200,156.800 247.282,156.800 247.383 M166.600 251.809 C 167.700 252.327,168.960 252.748,169.400 252.744 C 169.935 252.739,170.001 252.671,169.600 252.539 C 169.270 252.430,168.640 252.197,168.200 252.021 C 167.760 251.844,166.897 251.497,166.281 251.250 C 164.316 250.460,164.529 250.833,166.600 251.809 M229.200 252.628 C 227.770 253.141,226.857 253.569,227.172 253.580 C 227.837 253.603,230.080 252.910,231.800 252.149 C 233.717 251.301,232.041 251.610,229.200 252.628 M170.600 253.200 C 170.736 253.420,171.242 253.587,171.724 253.572 C 172.569 253.545,172.571 253.531,171.800 253.200 C 170.699 252.727,170.308 252.727,170.600 253.200 M225.000 254.000 C 224.229 254.331,224.231 254.345,225.076 254.372 C 225.558 254.387,226.064 254.220,226.200 254.000 C 226.492 253.527,226.101 253.527,225.000 254.000 M176.200 254.800 C 176.640 254.989,177.360 255.138,177.800 255.132 C 178.443 255.123,178.404 255.057,177.600 254.800 C 176.232 254.362,175.181 254.362,176.200 254.800 M221.800 254.800 L 221.000 255.144 221.800 255.166 C 222.240 255.178,222.870 255.013,223.200 254.800 C 223.995 254.286,222.996 254.286,221.800 254.800 M179.964 255.602 C 181.380 256.218,185.746 256.869,189.400 257.009 L 192.600 257.132 189.400 256.789 C 186.575 256.486,184.999 256.247,180.200 255.396 C 179.076 255.196,179.061 255.209,179.964 255.602 M218.767 255.365 C 218.547 255.583,211.497 256.743,209.200 256.939 C 208.210 257.024,208.750 257.040,210.400 256.975 C 215.083 256.790,222.952 255.277,219.567 255.212 C 219.218 255.205,218.858 255.274,218.767 255.365 M194.200 257.600 C 194.640 257.789,197.070 257.944,199.600 257.944 C 202.130 257.944,204.560 257.789,205.000 257.600 C 205.492 257.389,203.411 257.256,199.600 257.256 C 195.789 257.256,193.708 257.389,194.200 257.600 M187.609 273.986 C 187.232 274.224,188.395 274.275,190.809 274.125 C 192.894 273.996,194.675 273.825,194.767 273.745 C 195.152 273.409,188.148 273.645,187.609 273.986 M204.433 273.744 C 204.525 273.824,206.400 273.990,208.600 274.114 C 210.950 274.246,212.270 274.198,211.800 273.998 C 211.045 273.676,204.077 273.436,204.433 273.744 M180.800 274.800 C 180.250 274.976,179.170 275.152,178.400 275.191 C 177.630 275.230,176.280 275.514,175.400 275.822 C 173.681 276.423,173.863 276.408,178.600 275.563 C 179.920 275.327,182.260 274.995,183.800 274.826 L 186.600 274.517 184.200 274.499 C 182.880 274.488,181.350 274.624,180.800 274.800 M215.600 274.801 C 217.030 274.987,219.280 275.331,220.600 275.565 C 221.920 275.800,223.540 276.087,224.200 276.204 C 225.372 276.412,225.377 276.407,224.400 275.968 C 223.131 275.398,219.407 274.812,215.800 274.616 L 213.000 274.463 215.600 274.801 M170.800 276.800 C 170.036 277.294,170.858 277.294,172.400 276.800 L 173.400 276.480 172.400 276.446 C 171.850 276.427,171.130 276.587,170.800 276.800 M227.000 276.800 C 228.196 277.314,229.195 277.314,228.400 276.800 C 228.070 276.587,227.440 276.422,227.000 276.434 L 226.200 276.456 227.000 276.800 M167.800 277.600 C 167.508 278.073,167.899 278.073,169.000 277.600 C 169.771 277.269,169.769 277.255,168.924 277.228 C 168.442 277.213,167.936 277.380,167.800 277.600 M230.600 277.600 C 231.701 278.073,232.092 278.073,231.800 277.600 C 231.664 277.380,231.158 277.213,230.676 277.228 C 229.831 277.255,229.829 277.269,230.600 277.600 M164.590 278.416 C 164.421 278.689,164.723 278.738,165.466 278.560 C 166.999 278.192,167.144 278.000,165.890 278.000 C 165.317 278.000,164.732 278.187,164.590 278.416 M234.800 278.867 C 238.104 279.891,239.920 280.234,238.000 279.471 C 235.625 278.528,233.778 277.999,232.972 278.031 C 232.547 278.047,233.370 278.424,234.800 278.867 M161.000 279.456 C 160.120 279.765,159.149 280.109,158.843 280.219 C 158.536 280.329,158.360 280.493,158.451 280.585 C 158.543 280.676,159.873 280.319,161.409 279.792 C 162.944 279.265,163.840 278.847,163.400 278.864 C 162.960 278.880,161.880 279.146,161.000 279.456 M245.000 282.264 C 245.880 282.607,247.385 283.238,248.344 283.667 C 249.303 284.095,250.157 284.377,250.241 284.293 C 250.325 284.209,249.450 283.737,248.297 283.244 C 247.144 282.751,245.887 282.180,245.505 281.974 C 245.123 281.768,244.493 281.609,244.105 281.621 C 243.717 281.632,244.120 281.922,245.000 282.264 M150.842 283.237 C 149.875 283.666,149.168 284.102,149.272 284.206 C 149.376 284.309,150.167 284.060,151.031 283.651 C 151.894 283.242,152.870 282.807,153.200 282.685 C 153.733 282.488,153.733 282.463,153.200 282.460 C 152.870 282.458,151.809 282.808,150.842 283.237 M255.769 287.018 C 256.852 287.555,257.795 287.938,257.864 287.869 C 258.058 287.676,254.786 285.997,254.262 286.021 C 254.008 286.033,254.686 286.481,255.769 287.018 M141.462 287.647 C 140.616 288.093,140.010 288.544,140.115 288.649 C 140.275 288.809,143.039 287.454,143.567 286.957 C 144.013 286.537,142.834 286.923,141.462 287.647 M258.400 288.179 C 258.400 288.289,258.940 288.659,259.600 289.000 C 260.260 289.341,260.800 289.531,260.800 289.421 C 260.800 289.311,260.260 288.941,259.600 288.600 C 258.940 288.259,258.400 288.069,258.400 288.179 M138.649 289.120 C 138.541 289.296,137.477 289.950,136.286 290.573 C 135.094 291.196,133.688 292.062,133.160 292.496 C 132.357 293.156,132.461 293.138,133.800 292.388 C 134.680 291.894,136.210 291.043,137.200 290.496 C 139.295 289.338,139.962 288.800,139.304 288.800 C 139.053 288.800,138.758 288.944,138.649 289.120 M261.200 289.792 C 261.200 289.897,261.926 290.354,262.813 290.807 C 263.701 291.260,266.221 292.790,268.413 294.209 C 270.606 295.627,272.400 296.706,272.400 296.606 C 272.400 296.207,262.006 289.600,261.379 289.600 C 261.280 289.600,261.200 289.686,261.200 289.792 M128.116 295.520 C 126.970 296.334,126.025 297.146,126.016 297.326 C 126.007 297.505,127.080 296.894,128.400 295.968 C 129.720 295.042,130.800 294.220,130.800 294.142 C 130.800 293.767,130.024 294.165,128.116 295.520 M123.200 299.051 C 122.210 299.826,120.923 300.852,120.339 301.330 C 119.756 301.809,118.589 302.740,117.747 303.400 C 114.610 305.857,110.000 310.163,110.000 310.637 C 110.000 310.786,111.125 309.814,112.500 308.476 C 114.648 306.387,120.630 301.463,124.605 298.513 C 125.262 298.025,125.620 297.629,125.400 297.633 C 125.180 297.638,124.190 298.275,123.200 299.051 M275.000 298.589 C 276.886 300.242,278.400 301.285,278.395 300.927 C 278.393 300.747,277.358 299.911,276.095 299.069 C 274.708 298.144,274.275 297.954,275.000 298.589 M281.570 303.732 C 282.589 304.854,282.808 304.993,282.787 304.500 C 282.781 304.335,282.286 303.854,281.687 303.432 L 280.600 302.664 281.570 303.732 M287.154 308.642 C 289.439 310.824,293.021 314.407,295.114 316.605 C 297.207 318.802,298.668 320.245,298.360 319.811 C 296.628 317.372,286.239 306.980,283.791 305.237 C 283.356 304.928,284.869 306.460,287.154 308.642 M107.439 312.800 C 106.397 313.900,105.660 314.800,105.800 314.800 C 106.063 314.800,109.600 311.217,109.600 310.950 C 109.600 310.593,109.224 310.914,107.439 312.800 M103.887 316.532 C 101.559 319.184,94.119 328.256,93.252 329.500 C 91.381 332.184,93.093 330.618,95.260 327.663 C 98.131 323.749,100.818 320.466,103.561 317.520 C 104.749 316.244,105.559 315.214,105.361 315.232 C 105.162 315.249,104.499 315.834,103.887 316.532 M299.554 321.936 C 299.999 322.560,300.679 323.325,301.065 323.636 C 301.452 323.946,301.235 323.439,300.584 322.509 C 299.933 321.578,299.253 320.813,299.073 320.809 C 298.893 320.804,299.109 321.311,299.554 321.936 M302.851 325.900 C 303.153 326.285,303.505 326.690,303.633 326.800 C 303.761 326.910,304.907 328.494,306.180 330.320 C 307.453 332.145,308.575 333.558,308.675 333.459 C 308.841 333.293,306.345 329.560,305.407 328.571 C 305.183 328.335,304.550 327.481,304.000 326.674 C 303.450 325.866,302.843 325.204,302.651 325.203 C 302.459 325.201,302.549 325.515,302.851 325.900 M90.379 333.631 C 89.471 334.968,88.811 336.144,88.911 336.244 C 89.011 336.345,89.831 335.251,90.732 333.814 C 92.795 330.523,92.569 330.406,90.379 333.631 M87.449 338.103 C 85.584 341.326,85.200 342.042,85.200 342.305 C 85.200 342.459,85.650 341.923,86.200 341.114 C 86.750 340.305,87.200 339.526,87.200 339.383 C 87.200 339.240,87.572 338.601,88.027 337.962 C 88.482 337.323,88.707 336.801,88.527 336.803 C 88.347 336.804,87.862 337.389,87.449 338.103 M312.169 339.400 C 313.327 341.436,314.326 342.744,313.850 341.600 C 313.713 341.270,313.489 340.685,313.354 340.300 C 313.218 339.915,312.948 339.600,312.753 339.600 C 312.559 339.600,312.400 339.352,312.400 339.049 C 312.400 338.746,312.092 338.251,311.716 337.949 C 311.271 337.592,311.429 338.098,312.169 339.400 M314.867 343.908 C 315.498 345.366,317.387 348.747,317.504 348.629 C 317.700 348.434,315.255 343.600,314.961 343.600 C 314.836 343.600,314.793 343.738,314.867 343.908 M82.947 346.060 C 81.712 348.449,80.333 351.321,79.362 353.533 C 79.007 354.340,78.347 355.766,77.894 356.702 C 77.442 357.639,77.159 358.492,77.266 358.599 C 77.373 358.706,77.866 357.850,78.362 356.697 C 78.858 355.544,80.404 352.260,81.798 349.400 C 84.281 344.302,85.128 341.844,82.947 346.060 M319.200 352.720 C 319.200 352.896,319.352 353.211,319.538 353.420 C 319.723 353.629,320.287 354.841,320.790 356.114 C 321.293 357.387,321.801 358.332,321.920 358.214 C 322.038 358.096,321.942 357.594,321.707 357.099 C 321.472 356.605,320.901 355.345,320.438 354.300 C 319.656 352.535,319.200 351.953,319.200 352.720 M322.812 360.802 C 322.805 360.913,323.267 362.263,323.839 363.802 C 324.410 365.341,325.025 367.050,325.204 367.600 C 325.384 368.150,325.547 368.329,325.566 367.998 C 325.603 367.341,323.898 362.445,323.236 361.307 C 323.010 360.918,322.819 360.691,322.812 360.802 M75.677 362.331 C 75.415 363.029,75.002 364.185,74.760 364.900 C 74.517 365.615,74.137 366.587,73.913 367.061 C 73.690 367.534,73.580 368.141,73.670 368.409 C 73.759 368.678,74.264 367.570,74.791 365.949 C 75.318 364.327,75.912 362.781,76.112 362.513 C 76.312 362.246,76.403 361.810,76.315 361.545 C 76.226 361.279,75.939 361.633,75.677 362.331 M325.628 369.076 C 325.718 370.115,326.344 370.996,326.372 370.124 C 326.387 369.642,326.220 369.136,326.000 369.000 C 325.780 368.864,325.613 368.898,325.628 369.076 M73.067 369.867 C 72.920 370.013,72.811 370.508,72.825 370.967 C 72.849 371.733,72.882 371.723,73.234 370.842 C 73.626 369.863,73.544 369.389,73.067 369.867 M326.412 371.600 C 326.412 371.930,326.587 372.470,326.800 372.800 C 327.145 373.333,327.188 373.333,327.188 372.800 C 327.188 372.470,327.013 371.930,326.800 371.600 C 326.455 371.067,326.412 371.067,326.412 371.600 M72.200 372.800 C 72.050 373.273,72.017 373.750,72.127 373.860 C 72.237 373.970,72.450 373.673,72.600 373.200 C 72.750 372.727,72.783 372.250,72.673 372.140 C 72.563 372.030,72.350 372.327,72.200 372.800 M327.367 374.800 C 327.763 377.117,329.139 381.722,329.168 380.828 C 329.200 379.865,328.995 379.076,327.810 375.600 C 327.472 374.610,327.273 374.250,327.367 374.800 M71.646 374.867 C 71.621 375.234,71.496 375.864,71.370 376.267 C 71.152 376.962,71.163 376.963,71.597 376.287 C 71.848 375.896,71.973 375.266,71.873 374.887 C 71.711 374.268,71.688 374.266,71.646 374.867 M70.683 378.500 C 70.022 382.009,69.991 383.017,70.614 380.807 C 70.953 379.601,71.171 378.251,71.098 377.807 C 71.013 377.289,70.864 377.537,70.683 378.500 M329.438 383.800 C 329.770 385.784,330.002 386.104,329.994 384.567 C 329.991 383.925,329.804 383.130,329.579 382.800 C 329.286 382.370,329.246 382.654,329.438 383.800 M69.449 383.815 C 69.312 384.173,69.218 384.946,69.240 385.533 C 69.273 386.391,69.352 386.295,69.646 385.040 C 70.022 383.439,69.895 382.653,69.449 383.815 M330.228 388.261 C 330.597 390.303,330.800 390.455,330.800 388.690 C 330.800 387.897,330.609 387.129,330.374 386.984 C 330.085 386.805,330.038 387.212,330.228 388.261 M68.673 388.553 C 68.523 388.945,68.418 389.836,68.440 390.533 C 68.479 391.767,68.490 391.759,68.849 390.227 C 69.245 388.537,69.124 387.379,68.673 388.553 M330.869 392.200 C 330.856 392.860,330.995 394.120,331.177 395.000 C 331.465 396.392,331.511 396.444,331.531 395.400 C 331.544 394.740,331.405 393.480,331.223 392.600 C 330.935 391.208,330.889 391.156,330.869 392.200 M68.038 393.600 C 68.009 393.930,67.805 395.442,67.585 396.960 C 67.366 398.478,67.261 399.794,67.353 399.886 C 67.628 400.162,68.480 394.493,68.279 393.719 C 68.149 393.217,68.076 393.181,68.038 393.600 M331.701 398.600 C 331.705 399.480,331.787 399.793,331.883 399.295 C 331.979 398.798,331.975 398.078,331.875 397.695 C 331.775 397.313,331.696 397.720,331.701 398.600 " stroke="none" fill="#cccccc" fill-rule="evenodd"></path></g></svg>